<?xml version="1.0" encoding="UTF-8"?>
<svg id="Layer_1" xmlns="http://www.w3.org/2000/svg" version="1.1" viewBox="0 0 1024 768">
  <!-- Generator: Adobe Illustrator 30.2.1, SVG Export Plug-In . SVG Version: 2.1.1 Build 1)  -->
  <defs>
    <style>
      .st0 {
        fill: #4a43d1;
      }
    </style>
  </defs>
  <g>
    <path class="st0" d="M295.35,322.42c1.46-1.94,3.42-3.5,5.61-4.56,3.7-1.79,7.88-2.2,11.94-2.87.05,0,.1-.02.15-.02v-3.77c0-1.56.05-3.13.46-4.63.41-1.5,1.16-2.9,2.11-4.14,1.89-2.48,4.33-4.48,6.57-6.64,3.74-3.62,7.66-7.04,11.75-10.26-1.93.55-3.92.85-5.92.85-.78,0-1.56-.05-2.34-.14-3.51-.42-6.84-1.77-10.19-2.91-2.46-.84-5.06-1.51-7.63-1.51-.93,0-1.86.09-2.78.29-1.79.39-3.49,1.2-4.89,2.38-1.4,1.18-2.48,2.74-3.1,4.46h-3.57c2.66-6.7,7.41-12.63,13.61-16.32,3.69-2.2,7.94-3.49,12.24-3.56.14,0,.28,0,.41,0,3.61,0,7.17.81,10.67,1.71,3.63.94,7.29,1.9,11.04,2.07.39.02.78.03,1.17.03,2.66,0,5.32-.4,7.84-1.23,1.99-.65,3.9-1.55,5.67-2.67l-.23,4.03c-2.58,1.71-5.2,3.35-7.81,5.02-2.62,1.67-5.24,3.38-7.52,5.5-2.28,2.11-4.15,4.66-5.44,7.49-2.04,4.51-2.5,9.56-2.5,14.51v21.49s-.01,28.84-.01,28.84c0,2.34-.17,4.73-1.14,6.85-.97,2.13-2.62,3.89-4.49,5.29-4.04,3.03-8.88,4.82-13.11,7.58-.44.29-.88.59-1.31.89,3.91.05,7.8.6,11.68,1.13,4.15.56,8.3,1.11,12.47,1.52,1.27-.81,2.24-2.05,2.77-3.46.52-1.41.58-2.94.58-4.45v-76.94l29.5-26.03c4.9,3.35,10.13,6.24,15.59,8.59,2.64,1.14,5.33,2.15,8.06,3.04l4.79-4.41,4.26,3.19-18.63,18.4c-4.04-1.16-7.99-2.66-11.78-4.48-3.6-1.73-7.06-3.74-10.34-6.01v27.84h30.41l-17.28,17.79h-13.12v21.68c-7.33,10.69-15.7,20.67-24.94,29.77-2.23,2.19-4.51,4.34-6.84,6.42-1.75,1.57-3.48,3.21-5.53,4.37-1.02.58-2.13,1.01-3.28,1.26-1.15.24-2.33.29-3.51.31l-8.97.15c-.64.01-1.29.03-1.92.15s-1.24.36-1.78.71c-.54.35-1,.83-1.33,1.37s-.56,1.16-.67,1.8c-.17.98-.06,2,.25,2.95.31.95.82,1.82,1.47,2.58,1.3,1.51,3.15,2.52,5.12,2.84v3.95c-3.91.08-7.85-1.07-11.09-3.27-3.24-2.2-5.78-5.43-7.09-9.12-1.19-3.35-1.35-7.06-.38-10.47.97-3.42,3.07-6.49,5.86-8.68,3.1-2.44,6.95-3.74,10.89-4.23,3.13-4.55,4.51-10.16,4.97-15.7.26-3.1.32-6.21.32-9.32s-.06-6.01-.06-9.02c0-3.61,0-7.23,0-10.84h-7.08c-.95,0-1.9.01-2.83.19-.93.17-1.84.51-2.63,1.02-1.6,1.02-2.69,2.73-3.14,4.57-.31,1.28-.34,2.62-.1,3.91h-2.91c-1.46-2.76-2.24-5.88-2.24-9,0-1.17.11-2.33.33-3.48.47-2.39,1.44-4.68,2.91-6.62Z"/>
    <path class="st0" d="M459.35,373.66l-21.17,14.53-11.61-11.63-16.05,11.67c-6.23-.81-12.23-3.87-16.22-8.72-2.8-3.41-4.49-7.81-4.23-12.22.17-2.86,1.14-5.65,2.62-8.11,1.48-2.46,3.44-4.6,5.59-6.49,3.02-2.66,6.41-4.88,9.97-6.74-.76-.31-1.52-.64-2.26-.99-3.47-1.65-6.77-3.92-8.83-7.16-1.09-1.71-1.8-3.67-1.94-5.69-.13-1.87.24-3.76,1.03-5.46.79-1.7,1.99-3.19,3.4-4.42,1.51-1.32,3.27-2.31,5.04-3.24l16.76-8.75,22.44,14.47,6.14-4.98,2.68,3.31-7.93,6.43v38.35l7.29,7.29,6.56-4.37.72,2.92ZM425.83,332.83l-18.95-11.66c-1.13.46-2.21,1.06-3.18,1.81-1.2.91-2.25,2.04-2.98,3.35-.74,1.31-1.15,2.81-1.12,4.32.04,2.09.94,4.11,2.26,5.73,1.91,2.35,4.57,3.98,7.3,5.28,2.73,1.3,5.6,2.3,8.49,3.2,2.7.84,5.44,1.58,8.19,2.24v-14.26ZM416.84,348.81c-1.98-.59-3.97-1.19-5.93-1.87-1.2,1.95-2,4.15-2.36,6.41-.74,4.59.27,9.37,2.43,13.48,1.02,1.94,2.33,3.74,3.98,5.19,1.64,1.45,3.65,2.52,5.8,2.92,1.68.31,3.44.21,5.07-.31,0-7.71,0-15.43,0-23.14-2.99-.91-6-1.79-9-2.68Z"/>
    <path class="st0" d="M488.39,387.5l-21.87-15.31v-43.73l34.26-19.68,19.98,14.97,6.46-5.24,2.68,3.31-7.26,5.89v38.65c0,2,.03,4.01.36,5.98.33,1.97.93,3.9,1.83,5.69.67,1.35,1.46,2.66,1.86,4.11.4,1.45.44,3.01.05,4.47-.41,1.54-1.31,2.94-2.49,4.01-1.13,1.02-2.48,1.75-3.81,2.49-1.33.74-2.62,1.55-3.86,2.42l-28.12,19.84c-2.7-4.03-7-6.94-11.74-7.95-5.27-1.12-11,.15-15.3,3.4l-2.19-1.46c1.79-4.75,5.01-8.95,9.13-11.91,4.12-2.96,9.13-4.67,14.2-4.85,7.29-.26,14.64,2.73,19.68,8.02,1.08-.13,2.11-.55,2.98-1.2.86-.65,1.55-1.54,1.99-2.52.47-1.05.66-2.21.62-3.36-.04-1.15-.3-2.28-.67-3.37-.75-2.17-1.93-4.17-2.87-6.26-.84-1.88-1.48-3.84-1.81-5.87-.01-.08-.03-.16-.04-.24l-14.05,9.71ZM502.13,371.88l.11-37.54-17.49-11.66v40.04l17.39,10.88c0-.57,0-1.14,0-1.71Z"/>
    <path class="st0" d="M539.99,367.82v-40.3c0-.72-.02-1.45-.18-2.15-.16-.74-.47-1.45-.9-2.08-.67-.98-1.63-1.75-2.7-2.25-1.09-.5-2.31-.73-3.51-.67v-2.19s7.29-7.79,7.29-7.79v-19.57l33.88-19.16,20.35,12.6-18.76,10.52-16.59-10.42v26.46h19.6l-7.13,8.36h-12.47v50.08l8.67,7.2,5.04-2.72,2.19,2.92-20.93,10.83-16.04-13.85-5.83,3.64-2.19-2.92,10.21-6.56h0Z"/>
    <path class="st0" d="M581.94,374.35l7.19-5.83v-40.06l36.44-18.95,15.31,23.32v.73l-32.8,20.41v6.56l18.22,12.39,16.77-13.12,2.19,3.65-31.34,25.51-22.56-16.76-6.73,5.46-2.68-3.31ZM624.12,340.12l-13.12-18.95-2.92,1.64v27.45l16.04-10.14Z"/>
    <path class="st0" d="M703.69,326.13c-1.17,2.58-2.63,5.04-4.4,7.25-1.38,1.72-2.97,3.25-4.61,4.72l13.08,9.69v22.96l-30.02,18.25c-1.56-2.76-4.02-5.02-6.95-6.23-1.47-.6-3.05-.93-4.63-.88-1.58.05-3.18.5-4.46,1.42-.91.65-1.66,1.55-2.07,2.6-.4,1.05-.44,2.24-.04,3.3.35.92,1.03,1.72,1.89,2.21l-1.48,3.99c-3.66-1.42-6.69-4.37-8.24-7.98-1.54-3.61-1.58-7.78-.41-11.53,1.72-5.52,5.75-10.01,9.85-14.09,1.22-1.22,2.47-2.41,3.74-3.58l-11.5-9.07v-21.29l31.42-18.25c1.57,2.33,3.73,4.28,6.27,5.48,1.55.74,3.26,1.19,4.98,1.16,1.72-.03,3.45-.56,4.8-1.61,1.47-1.14,2.45-2.88,2.65-4.72h.05s0,0,0,0h4.3c-.57,5.58-1.91,11.1-4.23,16.21ZM674.25,355.66c-3.43,2.95-6.78,5.98-10.03,9.13-1.52,1.47-3.02,2.97-4.38,4.58,2.59-2.03,5.8-3.24,9.08-3.51,3.35-.28,6.76.41,9.77,1.88,4.15,2.03,7.54,5.54,9.45,9.74v-19.81s-8.43-6.71-8.43-6.71l-5.46,4.69ZM690.54,336.06c1.9-1.63,3.76-3.31,5.34-5.25.49-.6.95-1.23,1.38-1.87-1.67.81-3.46,1.35-5.3,1.6-3.2.43-6.51-.05-9.46-1.34-4.25-1.86-7.71-5.44-9.45-9.75v19.81l6.29,6.42,11.2-9.62Z"/>
    <path class="st0" d="M752.45,376.48l5.04-2.72,2.19,2.92-20.93,10.83-16.04-13.85-5.83,3.64-2.19-2.92,10.21-6.56v-37.15c0-.76-.02-1.52-.18-2.26-.16-.74-.47-1.45-.9-2.08-.67-.98-1.63-1.75-2.7-2.25-1.09-.5-2.31-.73-3.51-.67v-2.19s24.78-24.84,24.78-24.84h2.92v17.49h18.08l-7.13,8.36h-10.95v47.04l7.15,7.2Z"/>
  </g>
  <g>
    <path class="st0" d="M542.32,413.37h4.24c.88,0,1.69-.1,2.43-.29l.39-.05c.05.05.08.09.08.13,0,.31-.17.93-.52,1.86-.03.12-.35.21-.93.26-.59.05-1.18.08-1.78.08l-3.83-.1h-1.07c-.3,0-.66.03-1.07.1,0-1.93.81-3.83,2.43-5.69,1.52-1.43,3.04-2.86,4.55-4.3,1.64-1.57,2.46-2.96,2.46-4.17,0-.57-.18-1.04-.53-1.41-.35-.37-.8-.56-1.33-.56-.85,0-1.59.51-2.24,1.54-.65,1.03-1.03,1.54-1.15,1.54-.19,0-.47-.09-.85-.26s-.57-.32-.57-.44c0-.48.44-1.22,1.32-2.2,1.15-1.29,2.48-1.94,3.96-1.94,1.04,0,1.88.33,2.52,1,.65.66.97,1.53.97,2.6,0,1.47-.7,2.95-2.1,4.45-.09.09-1.48,1.34-4.19,3.75-1.69,1.5-2.75,2.86-3.18,4.09Z"/>
    <path class="st0" d="M557.72,405.3c-.78-1.18-1.17-2.29-1.17-3.32,0-1.23.43-2.29,1.29-3.16.86-.88,1.91-1.31,3.13-1.31.98,0,1.78.26,2.39.79.61.53.92,1.21.92,2.06,0,.79-.27,1.53-.8,2.21-.54.68-1.58,1.59-3.13,2.73.79,1.12,1.32,1.99,1.59,2.61.27.62.4,1.28.4,1.99,0,1.5-.53,2.79-1.58,3.85-1.05,1.07-2.33,1.61-3.83,1.61-1.14,0-2.07-.36-2.79-1.07-.73-.71-1.09-1.63-1.09-2.76,0-1.3.58-2.57,1.73-3.82.62-.66,1.6-1.47,2.92-2.42ZM558.65,406.56c-1.33,1.1-2.27,2.06-2.82,2.86-.55.8-.83,1.62-.83,2.44,0,.57.19,1.04.57,1.42.38.38.87.57,1.47.57.88,0,1.65-.36,2.3-1.09.66-.73.98-1.56.98-2.51,0-1.07-.56-2.3-1.68-3.7ZM559.48,404.08c1.09-.81,1.85-1.48,2.3-2.02.45-.53.67-1.06.67-1.58,0-.41-.16-.76-.47-1.04-.31-.28-.71-.41-1.19-.41-.67,0-1.24.24-1.7.71-.46.47-.69,1.05-.69,1.72,0,.72.35,1.6,1.06,2.61Z"/>
    <path class="st0" d="M566.57,414.95c0-.6.09-1.11.26-1.53.31-.76.85-1.14,1.6-1.14.28,0,.49.03.65.1.15.07.23.23.23.49,0,.24-.14.8-.41,1.68-.16.48-.28.75-.36.8-.05.03-.2.07-.45.1-.25.03-.45.05-.61.05-.6,0-.9-.19-.9-.57Z"/>
    <path class="st0" d="M584.43,406.64l2.48-.16c-.07.4-.14.69-.21.88-.24.6-.6.91-1.06.91l-3.88.08c-.26,0-.46.01-.6.04-.14.03-.29.06-.47.09l.59-1.68,3.13-.16Z"/>
    <path class="st0" d="M601.66,404.96c.95.28,1.62.85,2.02,1.71.28.59.41,1.24.41,1.97,0,1.78-.64,3.34-1.93,4.7-1.28,1.35-2.77,2.03-4.46,2.03-1.24,0-2.2-.42-2.87-1.27-.52-.66-.78-1.37-.78-2.15,0-.47.24-.85.72-1.14.38-.22.71-.34,1.01-.34.19,0,.28.12.28.36l-.18,1.4c0,.5.16.9.49,1.19.33.29.77.44,1.34.44,1.16,0,2.15-.52,2.98-1.55.83-1.04,1.24-2.29,1.24-3.75,0-.64-.15-1.22-.44-1.73-.36-.64-.85-.96-1.47-.96-.29.07-.51.12-.65.16-.45.1-.72.15-.83.15-.12,0-.22-.09-.31-.28s-.13-.4-.13-.62c1.29-.48,2.42-1.08,3.39-1.79,1.05-.78,1.58-1.77,1.58-2.98,0-.47-.14-.84-.43-1.13-.29-.28-.65-.43-1.1-.43-.48,0-.98.18-1.5.54-.47.4-.93.79-1.4,1.19-.05,0-.19-.1-.43-.3-.23-.2-.35-.36-.35-.48,0-.28.39-.71,1.16-1.32.97-.74,1.97-1.11,3-1.11.91,0,1.66.27,2.24.82.58.54.87,1.25.87,2.11,0,.97-.33,1.85-.98,2.64-.59.71-1.42,1.35-2.51,1.91Z"/>
    <path class="st0" d="M614.75,397.51c1.28,0,2.21.54,2.8,1.63.41.78.62,1.66.62,2.64,0,1.5-.3,3.26-.91,5.28-.69,2.28-1.59,4.16-2.69,5.64-1.33,1.78-2.79,2.67-4.37,2.67-1.07,0-1.92-.39-2.55-1.18-.63-.79-.95-1.84-.95-3.17,0-1.41.29-3.11.88-5.1.69-2.33,1.58-4.23,2.67-5.69,1.35-1.81,2.85-2.72,4.5-2.72ZM614.49,398.98c-1.05,0-2.06.88-3.03,2.64-.78,1.42-1.45,3.21-2.02,5.38-.48,1.86-.72,3.32-.72,4.37,0,1.64.55,2.46,1.66,2.46s2.11-.87,3.08-2.61c.79-1.42,1.46-3.2,1.99-5.36.47-1.85.7-3.31.7-4.4,0-.78-.15-1.38-.44-1.82-.29-.44-.7-.66-1.22-.66Z"/>
    <path class="st0" d="M620.37,414.95c0-.6.09-1.11.26-1.53.31-.76.85-1.14,1.6-1.14.28,0,.49.03.65.1.15.07.23.23.23.49,0,.24-.14.8-.41,1.68-.16.48-.28.75-.36.8-.05.03-.2.07-.45.1-.25.03-.45.05-.61.05-.6,0-.9-.19-.9-.57Z"/>
    <path class="st0" d="M646.17,410.34v2.19c-2,1.84-3.57,2.75-4.71,2.75-.54,0-.89-.2-1.07-.6-.18-.4-.27-.88-.27-1.42v-.44c-.83.92-1.51,1.55-2.06,1.92-.54.36-1.07.54-1.59.54-.78,0-1.45-.37-2.03-1.1-.58-.73-.87-1.6-.87-2.6,0-1.86.59-3.48,1.76-4.84,1.09-1.26,2.27-1.89,3.55-1.89.52,0,.99.13,1.41.39.42.26.82.67,1.2,1.24l.44-1.63h2.15l-1.34,5.46c-.12.43-.22.89-.31,1.37-.09.49-.13.82-.13,1.01,0,.32.1.49.31.49.28,0,.73-.25,1.36-.76s1.37-1.2,2.21-2.09ZM640.54,410.65l.58-2.59c-.59-.69-.97-1.11-1.16-1.27-.28-.22-.57-.34-.88-.34-.83,0-1.58.47-2.24,1.41-.66.94-1,2-1,3.17,0,.74.12,1.34.36,1.8.24.46.56.69.96.69.52,0,1.14-.38,1.87-1.14.5-.57,1-1.15,1.5-1.73Z"/>
    <path class="st0" d="M646.12,412.62v-2.15c2.1-2.26,3.97-4.87,5.59-7.84h1.81l-1.37,5.77.31-.41c.81-1.14,1.52-1.94,2.13-2.42s1.25-.71,1.93-.71,1.22.27,1.64.82c.42.54.63,1.25.63,2.13,0,2.19-.76,4.15-2.28,5.87.67,0,1.35-.25,2.04-.75.31-.22.87-.73,1.68-1.53.16-.17.34-.39.54-.65.07-.09.17-.22.31-.41v2.2c-1.16,1.07-1.82,1.66-1.99,1.79-.79.57-1.61.85-2.43.85-.4,0-.91-.1-1.53-.31-.45.28-1.01.41-1.68.41-.88,0-1.32-.27-1.32-.8,0-.41.08-.8.25-1.15.16-.35.43-.53.79-.53.22,0,.48.04.78.13.09.02.36.11.83.28.55-.52.99-1.2,1.32-2.04.4-1.02.6-2.03.6-3.05,0-1.09-.26-1.63-.78-1.63-.41,0-.9.28-1.47.84-.57.56-1.18,1.35-1.84,2.37-.85,1.36-1.55,3.06-2.11,5.1s-1.01,3.66-1.36,4.86c-.12.45-.45.67-.98.67-.9,0-1.34-.33-1.34-.98v-.23c0-.19.05-.43.16-.72,0-.02.15-.39.44-1.11.71-1.71,1.35-3.47,1.94-5.29.59-1.82,1.11-3.7,1.58-5.63-.88,1.52-1.67,2.73-2.37,3.65-.7.91-1.51,1.78-2.44,2.61Z"/>
    <path class="st0" d="M661.05,412.64v-2.15c.96-.95,1.65-1.65,2.04-2.1.78-.88,1.36-1.72,1.73-2.54-.24-.48-.36-.87-.36-1.17,0-.53.06-.95.17-1.25.11-.3.38-.45.82-.45.71,0,1.15.05,1.32.15.17.1.26.35.26.73s-.13.91-.39,1.6c.88.31,1.47.56,1.79.75.76.45,1.14,1.19,1.14,2.23,0,.5-.12,1.1-.36,1.81-.55,1.6-.83,2.49-.83,2.67,0,.29.14.44.41.44.76,0,2.15-1.01,4.17-3.03v2.2c-2.19,1.88-3.93,2.82-5.23,2.82-.48,0-.87-.19-1.17-.57-.29-.38-.44-.87-.44-1.47s.22-1.44.67-2.51.67-1.8.67-2.2c0-.78-.45-1.35-1.35-1.71-.55,1.14-1.53,2.39-2.92,3.75-.47.45-1.18,1.11-2.15,1.99Z"/>
    <path class="st0" d="M679.89,410.34v2.2c-.67.67-1.47,1.28-2.41,1.84-1.1.66-2.04.98-2.79.98-.64,0-1.06-.45-1.27-1.35-.1-.45-.16-1.15-.16-2.12s.15-2,.44-3.21c.29-1.21.7-2.47,1.22-3.78h2.17l-.26.78c-.54,1.6-.92,2.89-1.14,3.85-.22.97-.34,1.8-.34,2.51,0,.83.16,1.24.49,1.24.43,0,1.26-.52,2.48-1.55.52-.45,1.04-.91,1.55-1.4ZM677.35,399.29c.85,0,1.27.24,1.27.72,0,.28-.07.63-.21,1.05-.14.42-.3.72-.48.9-.18.18-.52.27-1.02.27-.66,0-.98-.22-.98-.65,0-.6.13-1.14.4-1.61.27-.47.61-.7,1.02-.7Z"/>
    <path class="st0" d="M689.12,410.34v2.2c-1.33,1.02-2.48,1.74-3.44,2.16-.97.42-1.92.63-2.85.63s-1.61-.38-2.04-1.14c-.36-.62-.54-1.45-.54-2.48,0-1.79.45-4.11,1.34-6.96.97-3.05,2-5.18,3.11-6.39.62-.6,1.24-.9,1.86-.9.5,0,.92.22,1.27.66.35.44.52.99.52,1.64,0,.98-.28,2.08-.85,3.29-.48,1.04-1.21,2.22-2.17,3.55-.69.97-1.62,2.15-2.79,3.55l-.13,1.58c0,1.24.4,1.86,1.22,1.86.69,0,1.56-.3,2.61-.9,1.05-.6,2.02-1.38,2.9-2.33ZM682.89,407.6c.97-1.36,1.63-2.33,1.99-2.9.62-.96,1.09-1.81,1.41-2.55.32-.73.48-1.41.48-2.03,0-.58-.16-.88-.47-.88-.57,0-1.28,1.24-2.12,3.73-.6,1.79-1.04,3.34-1.29,4.63Z"/>
    <path class="st0" d="M699.69,413.37h4.24c.88,0,1.69-.1,2.43-.29l.39-.05c.05.05.08.09.08.13,0,.31-.17.93-.52,1.86-.03.12-.35.21-.93.26-.59.05-1.18.08-1.78.08l-3.83-.1h-1.07c-.3,0-.66.03-1.07.1,0-1.93.81-3.83,2.43-5.69,1.52-1.43,3.04-2.86,4.55-4.3,1.64-1.57,2.46-2.96,2.46-4.17,0-.57-.18-1.04-.53-1.41s-.8-.56-1.33-.56c-.85,0-1.59.51-2.24,1.54-.65,1.03-1.03,1.54-1.15,1.54-.19,0-.47-.09-.85-.26-.38-.17-.57-.32-.57-.44,0-.48.44-1.22,1.32-2.2,1.15-1.29,2.48-1.94,3.96-1.94,1.04,0,1.88.33,2.52,1,.65.66.97,1.53.97,2.6,0,1.47-.7,2.95-2.1,4.45-.09.09-1.48,1.34-4.19,3.75-1.69,1.5-2.75,2.86-3.18,4.09Z"/>
    <path class="st0" d="M718.32,397.51c1.28,0,2.21.54,2.8,1.63.41.78.62,1.66.62,2.64,0,1.5-.3,3.26-.91,5.28-.69,2.28-1.59,4.16-2.69,5.64-1.33,1.78-2.79,2.67-4.37,2.67-1.07,0-1.92-.39-2.55-1.18-.63-.79-.95-1.84-.95-3.17,0-1.41.29-3.11.88-5.1.69-2.33,1.58-4.23,2.67-5.69,1.35-1.81,2.85-2.72,4.5-2.72ZM718.06,398.98c-1.05,0-2.06.88-3.03,2.64-.78,1.42-1.45,3.21-2.02,5.38-.48,1.86-.72,3.32-.72,4.37,0,1.64.55,2.46,1.66,2.46s2.11-.87,3.08-2.61c.79-1.42,1.46-3.2,1.99-5.36.47-1.85.7-3.31.7-4.4,0-.78-.15-1.38-.44-1.82-.29-.44-.7-.66-1.22-.66Z"/>
    <path class="st0" d="M724.53,413.37h4.24c.88,0,1.69-.1,2.43-.29l.39-.05c.05.05.08.09.08.13,0,.31-.17.93-.52,1.86-.03.12-.35.21-.93.26-.59.05-1.18.08-1.78.08l-3.83-.1h-1.07c-.3,0-.66.03-1.07.1,0-1.93.81-3.83,2.43-5.69,1.52-1.43,3.04-2.86,4.55-4.3,1.64-1.57,2.46-2.96,2.46-4.17,0-.57-.18-1.04-.53-1.41-.35-.37-.8-.56-1.33-.56-.85,0-1.59.51-2.24,1.54-.65,1.03-1.03,1.54-1.15,1.54-.19,0-.47-.09-.85-.26-.38-.17-.57-.32-.57-.44,0-.48.44-1.22,1.32-2.2,1.15-1.29,2.48-1.94,3.96-1.94,1.04,0,1.88.33,2.52,1,.65.66.97,1.53.97,2.6,0,1.47-.7,2.95-2.1,4.45-.09.09-1.48,1.34-4.19,3.75-1.69,1.5-2.75,2.86-3.18,4.09Z"/>
    <path class="st0" d="M739.02,405.63c.69-.45,1.27-.76,1.73-.94.47-.18.93-.27,1.4-.27.86,0,1.59.35,2.17,1.04.59.69.88,1.56.88,2.61,0,1.71-.56,3.31-1.68,4.81-1.23,1.66-2.68,2.48-4.37,2.48-1.14,0-2.04-.38-2.69-1.14-.66-.76-.98-1.8-.98-3.13,0-1.72.46-3.59,1.37-5.6.91-2.01,2.1-3.75,3.57-5.21.81-.85,1.75-1.53,2.81-2.04,1.06-.52,2.04-.78,2.94-.78.19,0,.31.04.36.13.05.09.08.28.08.6s-.03.52-.08.62c-.05.1-.18.17-.39.21-1.05.1-2.06.53-3.03,1.27-.83.64-1.61,1.47-2.36,2.48-.5.69-1.08,1.65-1.73,2.87ZM741.61,406.12c-.98,0-1.89.41-2.72,1.24-.98.98-1.47,2.24-1.47,3.78,0,.81.17,1.46.52,1.94.34.48.81.73,1.4.73,1.07,0,2-.75,2.79-2.25.67-1.26,1.01-2.45,1.01-3.57,0-.59-.14-1.04-.41-1.37-.28-.33-.65-.49-1.11-.49Z"/>
  </g>
</svg>