<?xml version="1.0" encoding="UTF-8"?>
<svg id="Layer_1" xmlns="http://www.w3.org/2000/svg" version="1.1" viewBox="0 0 1024 768">
  <!-- Generator: Adobe Illustrator 30.2.1, SVG Export Plug-In . SVG Version: 2.1.1 Build 1)  -->
  <defs>
    <style>
      .st0 {
        fill: #4a43d1;
      }
    </style>
  </defs>
  <path class="st0" d="M295.35,322.42c1.46-1.94,3.42-3.5,5.61-4.56,3.7-1.79,7.88-2.2,11.94-2.87.05,0,.1-.02.15-.02v-3.77c0-1.56.05-3.13.46-4.63.41-1.5,1.16-2.9,2.11-4.14,1.89-2.48,4.33-4.48,6.57-6.64,3.74-3.62,7.66-7.04,11.75-10.26-1.93.55-3.92.85-5.92.85-.78,0-1.56-.05-2.34-.14-3.51-.42-6.84-1.77-10.19-2.91-2.46-.84-5.06-1.51-7.63-1.51-.93,0-1.86.09-2.78.29-1.79.39-3.49,1.2-4.89,2.38-1.4,1.18-2.48,2.74-3.1,4.46h-3.57c2.66-6.7,7.41-12.63,13.61-16.32,3.69-2.2,7.94-3.49,12.24-3.56.14,0,.28,0,.41,0,3.61,0,7.17.81,10.67,1.71,3.63.94,7.29,1.9,11.04,2.07.39.02.78.03,1.17.03,2.66,0,5.32-.4,7.84-1.23,1.99-.65,3.9-1.55,5.67-2.67l-.23,4.03c-2.58,1.71-5.2,3.35-7.81,5.02-2.62,1.67-5.24,3.38-7.52,5.5-2.28,2.11-4.15,4.66-5.44,7.49-2.04,4.51-2.5,9.56-2.5,14.51v21.49s-.01,28.84-.01,28.84c0,2.34-.17,4.73-1.14,6.85-.97,2.13-2.62,3.89-4.49,5.29-4.04,3.03-8.88,4.82-13.11,7.58-.44.29-.88.59-1.31.89,3.91.05,7.8.6,11.68,1.13,4.15.56,8.3,1.11,12.47,1.52,1.27-.81,2.24-2.05,2.77-3.46.52-1.41.58-2.94.58-4.45v-76.94l29.5-26.03c4.9,3.35,10.13,6.24,15.59,8.59,2.64,1.14,5.33,2.15,8.06,3.04l4.79-4.41,4.26,3.19-18.63,18.4c-4.04-1.16-7.99-2.66-11.78-4.48-3.6-1.73-7.06-3.74-10.34-6.01v27.84h30.41l-17.28,17.79h-13.12v21.68c-7.33,10.69-15.7,20.67-24.94,29.77-2.23,2.19-4.51,4.34-6.84,6.42-1.75,1.57-3.48,3.21-5.53,4.37-1.02.58-2.13,1.01-3.28,1.26-1.15.24-2.33.29-3.51.31l-8.97.15c-.64.01-1.29.03-1.92.15s-1.24.36-1.78.71c-.54.35-1,.83-1.33,1.37s-.56,1.16-.67,1.8c-.17.98-.06,2,.25,2.95.31.95.82,1.82,1.47,2.58,1.3,1.51,3.15,2.52,5.12,2.84v3.95c-3.91.08-7.85-1.07-11.09-3.27-3.24-2.2-5.78-5.43-7.09-9.12-1.19-3.35-1.35-7.06-.38-10.47.97-3.42,3.07-6.49,5.86-8.68,3.1-2.44,6.95-3.74,10.89-4.23,3.13-4.55,4.51-10.16,4.97-15.7.26-3.1.32-6.21.32-9.32s-.06-6.01-.06-9.02c0-3.61,0-7.23,0-10.84h-7.08c-.95,0-1.9.01-2.83.19-.93.17-1.84.51-2.63,1.02-1.6,1.02-2.69,2.73-3.14,4.57-.31,1.28-.34,2.62-.1,3.91h-2.91c-1.46-2.76-2.24-5.88-2.24-9,0-1.17.11-2.33.33-3.48.47-2.39,1.44-4.68,2.91-6.62Z"/>
  <path class="st0" d="M459.35,373.66l-21.17,14.53-11.61-11.63-16.05,11.67c-6.23-.81-12.23-3.87-16.22-8.72-2.8-3.41-4.49-7.81-4.23-12.22.17-2.86,1.14-5.65,2.62-8.11,1.48-2.46,3.44-4.6,5.59-6.49,3.02-2.66,6.41-4.88,9.97-6.74-.76-.31-1.52-.64-2.26-.99-3.47-1.65-6.77-3.92-8.83-7.16-1.09-1.71-1.8-3.67-1.94-5.69-.13-1.87.24-3.76,1.03-5.46.79-1.7,1.99-3.19,3.4-4.42,1.51-1.32,3.27-2.31,5.04-3.24l16.76-8.75,22.44,14.47,6.14-4.98,2.68,3.31-7.93,6.43v38.35l7.29,7.29,6.56-4.37.72,2.92ZM425.83,332.83l-18.95-11.66c-1.13.46-2.21,1.06-3.18,1.81-1.2.91-2.25,2.04-2.98,3.35-.74,1.31-1.15,2.81-1.12,4.32.04,2.09.94,4.11,2.26,5.73,1.91,2.35,4.57,3.98,7.3,5.28,2.73,1.3,5.6,2.3,8.49,3.2,2.7.84,5.44,1.58,8.19,2.24v-14.26ZM416.84,348.81c-1.98-.59-3.97-1.19-5.93-1.87-1.2,1.95-2,4.15-2.36,6.41-.74,4.59.27,9.37,2.43,13.48,1.02,1.94,2.33,3.74,3.98,5.19,1.64,1.45,3.65,2.52,5.8,2.92,1.68.31,3.44.21,5.07-.31,0-7.71,0-15.43,0-23.14-2.99-.91-6-1.79-9-2.68Z"/>
  <path class="st0" d="M488.39,387.5l-21.87-15.31v-43.73l34.26-19.68,19.98,14.97,6.46-5.24,2.68,3.31-7.26,5.89v38.65c0,2,.03,4.01.36,5.98.33,1.97.93,3.9,1.83,5.69.67,1.35,1.46,2.66,1.86,4.11.4,1.45.44,3.01.05,4.47-.41,1.54-1.31,2.94-2.49,4.01-1.13,1.02-2.48,1.75-3.81,2.49-1.33.74-2.62,1.55-3.86,2.42l-28.12,19.84c-2.7-4.03-7-6.94-11.74-7.95-5.27-1.12-11,.15-15.3,3.4l-2.19-1.46c1.79-4.75,5.01-8.95,9.13-11.91,4.12-2.96,9.13-4.67,14.2-4.85,7.29-.26,14.64,2.73,19.68,8.02,1.08-.13,2.11-.55,2.98-1.2.86-.65,1.55-1.54,1.99-2.52.47-1.05.66-2.21.62-3.36-.04-1.15-.3-2.28-.67-3.37-.75-2.17-1.93-4.17-2.87-6.26-.84-1.88-1.48-3.84-1.81-5.87-.01-.08-.03-.16-.04-.24l-14.05,9.71ZM502.13,371.88l.11-37.54-17.49-11.66v40.04l17.39,10.88c0-.57,0-1.14,0-1.71Z"/>
  <path class="st0" d="M539.99,367.82v-40.3c0-.72-.02-1.45-.18-2.15-.16-.74-.47-1.45-.9-2.08-.67-.98-1.63-1.75-2.7-2.25-1.09-.5-2.31-.73-3.51-.67v-2.19s7.29-7.79,7.29-7.79v-19.57l33.88-19.16,20.35,12.6-18.76,10.52-16.59-10.42v26.46h19.6l-7.13,8.36h-12.47v50.08l8.67,7.2,5.04-2.72,2.19,2.92-20.93,10.83-16.04-13.85-5.83,3.64-2.19-2.92,10.21-6.56h0Z"/>
  <path class="st0" d="M581.94,374.35l7.19-5.83v-40.06l36.44-18.95,15.31,23.32v.73l-32.8,20.41v6.56l18.22,12.39,16.77-13.12,2.19,3.65-31.34,25.51-22.56-16.76-6.73,5.46-2.68-3.31ZM624.12,340.12l-13.12-18.95-2.92,1.64v27.45l16.04-10.14Z"/>
  <path class="st0" d="M703.69,326.13c-1.17,2.58-2.63,5.04-4.4,7.25-1.38,1.72-2.97,3.25-4.61,4.72l13.08,9.69v22.96l-30.02,18.25c-1.56-2.76-4.02-5.02-6.95-6.23-1.47-.6-3.05-.93-4.63-.88-1.58.05-3.18.5-4.46,1.42-.91.65-1.66,1.55-2.07,2.6-.4,1.05-.44,2.24-.04,3.3.35.92,1.03,1.72,1.89,2.21l-1.48,3.99c-3.66-1.42-6.69-4.37-8.24-7.98-1.54-3.61-1.58-7.78-.41-11.53,1.72-5.52,5.75-10.01,9.85-14.09,1.22-1.22,2.47-2.41,3.74-3.58l-11.5-9.07v-21.29l31.42-18.25c1.57,2.33,3.73,4.28,6.27,5.48,1.55.74,3.26,1.19,4.98,1.16,1.72-.03,3.45-.56,4.8-1.61,1.47-1.14,2.45-2.88,2.65-4.72h.05s0,0,0,0h4.3c-.57,5.58-1.91,11.1-4.23,16.21ZM674.25,355.66c-3.43,2.95-6.78,5.98-10.03,9.13-1.52,1.47-3.02,2.97-4.38,4.58,2.59-2.03,5.8-3.24,9.08-3.51,3.35-.28,6.76.41,9.77,1.88,4.15,2.03,7.54,5.54,9.45,9.74v-19.81s-8.43-6.71-8.43-6.71l-5.46,4.69ZM690.54,336.06c1.9-1.63,3.76-3.31,5.34-5.25.49-.6.95-1.23,1.38-1.87-1.67.81-3.46,1.35-5.3,1.6-3.2.43-6.51-.05-9.46-1.34-4.25-1.86-7.71-5.44-9.45-9.75v19.81l6.29,6.42,11.2-9.62Z"/>
  <path class="st0" d="M752.45,376.48l5.04-2.72,2.19,2.92-20.93,10.83-16.04-13.85-5.83,3.64-2.19-2.92,10.21-6.56v-37.15c0-.76-.02-1.52-.18-2.26-.16-.74-.47-1.45-.9-2.08-.67-.98-1.63-1.75-2.7-2.25-1.09-.5-2.31-.73-3.51-.67v-2.19s24.78-24.84,24.78-24.84h2.92v17.49h18.08l-7.13,8.36h-10.95v47.04l7.15,7.2Z"/>
</svg>